<?xml version="1.0" encoding="utf-8"?>
<!-- Generator: Adobe Illustrator 18.1.1, SVG Export Plug-In . SVG Version: 6.00 Build 0)  -->
<!DOCTYPE svg PUBLIC "-//W3C//DTD SVG 1.1//EN" "http://www.w3.org/Graphics/SVG/1.1/DTD/svg11.dtd">
<svg version="1.1" id="Layer_2" xmlns="http://www.w3.org/2000/svg" xmlns:xlink="http://www.w3.org/1999/xlink" x="0px" y="0px"
	 viewBox="0 0 158 302" style="enable-background:new 0 0 158 302;" xml:space="preserve">
<style type="text/css">
	.st0{fill:#FFFFFF;}
	.st1{fill:#EA2B1F;}
	.st2{fill:#FD85A9;}
	.st3{fill:#EA2B1F;stroke:#231F20;stroke-width:0.5;stroke-miterlimit:10;}
</style>
<path class="st0" d="M43.7,164l71.7,1.5c0,0,8.9-2.6,2.8,21.3l-0.9,29.6c0,0,4.2,23.2,12.2,49.6c0,0,2.3,7-8.9,8.3L71.1,280
	c0,0-23.2,4.9-26.5-15.3l-2.1-48.7C42.5,215.9,32.7,164,43.7,164z"/>
<path class="st1" d="M79,130.8c0,0-26.5,30-10.8,37.9c0,0,9.6,3.6,13.8-3.2c0,0,6.7,6.9,15.6,2.9C97.7,168.5,111.3,159.8,79,130.8z"
	/>
<path class="st1" d="M47.3,272.6l-0.1,4.7c0,0-10.4-16.4-22.9-13.2c0,0-3.7,17,15.4,23.5c0,0,12.1,2.8,17.5,2.5
	c0,0,5.3,1.8,4.5-10.6c0,0-4.5,0.2-8.1-2.4c-3.7-2.5-6.6-6-6.6-6"/>
<path class="st1" d="M29.7,181.4l7.9,74l4.2-0.2l-8.2-74c0,0,4.2,2.1,4.8-0.2c0,0-7.5-28.2-8.3-44.8S24,39.3,24,39.3
	s7.7,3.9,10.4-2.4c0,0,4.6-9.8-11.2-27.8c0,0-4.2-3.8-6.9,2.3c0,0-21.3,31.9,2.8,28l6.8,99.6l0,24.3C25.8,163.3,18.3,190,29.7,181.4
	z"/>
<path class="st1" d="M38.9,185.9c0,0-6.2-3.1-11.7-0.5l0.7,12.1c0,0,0.4,7.7,11.8,1.8L38.9,185.9z"/>
<path class="st1" d="M114.9,275c0,0-3.5,17.6,13.3,19.5l17.6,1.3c0,0,12.7-3.4,0-10.4c0,0-16.3-1.6-21.2-12.1L114.9,275z"/>
<path class="st1" d="M81.4,211.7c0,0-10.2-6.9-8.8,4.5c0,0,2.8,8.8,10.7,15.3l8-13.4C91.2,218.1,96.1,205.1,81.4,211.7z"/>
<path class="st1" d="M51.4,176.2c0,0-5.4-3.6-4.6,2.4c0,0,1.5,4.6,5.6,8.1l4.2-7.1C56.6,179.6,59.2,172.8,51.4,176.2z"/>
<path class="st1" d="M116.6,261.6c0,0,6.4,1.9,3.6-3.5c0,0-3-4-8.1-6.1l-1.6,7.9C110.5,259.9,110.4,267.1,116.6,261.6z"/>
<path class="st2" d="M82.1,165.4c0,0,15.7-17.2,6.4-21.7c0,0-5.7-2.1-8.2,1.8c0,0-4-3.9-9.3-1.7C71,143.9,62.9,148.9,82.1,165.4z"/>
<path class="st3" d="M79.9,145.6c0,0-5.4-2.4-4.6,1.6c0,0,1.5,3.1,5.6,5.3l4.2-4.6C85.1,147.9,87.7,143.4,79.9,145.6z"/>
</svg>
