<?xml version="1.0" encoding="utf-8"?>
<!-- Generator: Adobe Illustrator 18.1.1, SVG Export Plug-In . SVG Version: 6.00 Build 0)  -->
<!DOCTYPE svg PUBLIC "-//W3C//DTD SVG 1.1//EN" "http://www.w3.org/Graphics/SVG/1.1/DTD/svg11.dtd">
<svg version="1.1" id="Layer_1" xmlns="http://www.w3.org/2000/svg" xmlns:xlink="http://www.w3.org/1999/xlink" x="0px" y="0px"
	 viewBox="0 90 612 612" style="enable-background:new 0 90 612 612;" xml:space="preserve">
<style type="text/css">
	.st0{fill:#231F20;}
	.st1{fill:#FFFFFF;}
	.st2{fill:#EA2B1F;}
	.st3{fill:#FD85A9;}
	.st4{fill:#EA2B1F;stroke:#231F20;stroke-width:0.5;stroke-miterlimit:10;}
</style>
<g id="Layer_3">
	<rect y="90" class="st0" width="612" height="612"/>
</g>
<g id="Layer_2">
	<g>
		<path class="st1" d="M245,416.6l121.9,2.6c0,0,15.1-4.4,4.8,36.2l-1.5,50.3c0,0,7.1,39.4,20.7,84.3c0,0,3.9,11.9-15.1,14.1
			l-84,9.7c0,0-39.4,8.3-45.1-26l-3.6-83C243.1,504.8,226.3,416.6,245,416.6z"/>
		<path class="st2" d="M305.1,360.1c0,0-45,51-18.4,64.4c0,0,16.3,6.1,23.5-5.4c0,0,11.4,11.7,26.5,4.9
			C336.9,424.2,360.1,409.4,305.1,360.1z"/>
		<path class="st2" d="M251.3,601.2l-0.2,8c0,0-17.7-27.9-38.9-22.4c0,0-6.3,28.9,26.2,40c0,0,20.6,4.8,29.8,4.2c0,0,9,3.1,7.6-18
			c0,0-7.6,0.3-13.8-4.1c-6.3-4.2-11.2-10.2-11.2-10.2"/>
		<path class="st2" d="M221.3,446.2L234.8,572l7.1-0.3L228,445.8c0,0,7.1,3.6,8.2-0.3c0,0-12.8-47.9-14.1-76.2
			c-1.4-28.2-10.5-164.7-10.5-164.7s13.1,6.6,17.7-4.1c0,0,7.8-16.7-19-47.3c0,0-7.1-6.5-11.7,3.9c0,0-36.2,54.2,4.8,47.6
			l11.6,169.3v41.3C214.7,415.4,202,460.8,221.3,446.2z"/>
		<path class="st2" d="M237,453.8c0,0-10.5-5.3-19.9-0.9l1.2,20.6c0,0,0.7,13.1,20.1,3.1L237,453.8z"/>
		<path class="st2" d="M366.2,605.3c0,0-5.9,29.9,22.6,33.2l29.9,2.2c0,0,21.6-5.8,0-17.7c0,0-27.7-2.7-36-20.6L366.2,605.3z"/>
		<path class="st2" d="M309.1,497.7c0,0-17.3-11.7-15,7.7c0,0,4.8,15,18.2,26l13.6-22.8C325.9,508.5,334.1,486.4,309.1,497.7z"/>
		<path class="st2" d="M258.2,437.3c0,0-9.2-6.1-7.8,4.1c0,0,2.6,7.8,9.5,13.8l7.1-12.1C267.1,443.1,271.5,431.5,258.2,437.3z"/>
		<path class="st2" d="M369.1,582.5c0,0,10.9,3.2,6.1-6c0,0-5.1-6.8-13.8-10.4l-2.7,13.4C358.7,579.4,358.5,591.8,369.1,582.5z"/>
		<path class="st3" d="M310.4,419c0,0,26.7-29.2,10.9-36.9c0,0-9.7-3.6-13.9,3.1c0,0-6.8-6.6-15.8-2.9
			C291.6,382.4,277.8,390.9,310.4,419z"/>
		<path class="st4" d="M306.7,385.3c0,0-9.2-4.1-7.8,2.7c0,0,2.5,5.3,9.5,9l7.1-7.8C315.5,389.2,319.9,381.6,306.7,385.3z"/>
	</g>
</g>
</svg>
