<?xml version="1.0" encoding="utf-8"?>
<!-- Generator: Adobe Illustrator 18.1.1, SVG Export Plug-In . SVG Version: 6.00 Build 0)  -->
<!DOCTYPE svg PUBLIC "-//W3C//DTD SVG 1.1//EN" "http://www.w3.org/Graphics/SVG/1.1/DTD/svg11.dtd">
<svg version="1.1" xmlns="http://www.w3.org/2000/svg" xmlns:xlink="http://www.w3.org/1999/xlink" x="0px" y="0px"
	 viewBox="0 90 612 612" style="enable-background:new 0 90 612 612;" xml:space="preserve">
<style type="text/css">
	.st0{fill:#231F20;}
	.st1{display:none;}
	.st2{fill:#AF740D;}
	.st3{fill:#E55E82;}
	.st4{fill:#3D74A8;}
	.st5{fill:#81C2FF;}
	.st6{fill:none;stroke:#D9550C;stroke-width:3;stroke-miterlimit:10;}
	.st7{fill:none;stroke:#E55E82;stroke-miterlimit:10;}
</style>
<g id="Layer_2_1_">
	<g id="Layer_3">
		<rect y="90" class="st0" width="612" height="612"/>
	</g>
</g>
<g id="Layer_6" class="st1">
	
		<image style="display:inline;overflow:visible;" width="251" height="201" xlink:href="../../../../../../Desktop/images-1.jpg"  transform="matrix(1.796 0 0 1.796 100 167)">
	</image>
</g>
<g id="Layer_5">
	<g>
		<path class="st2" d="M313.5,534c0,0-22,12.4,4.8,12.4c0,0,26.2,14.2,26.8,0c0.6-14.2,0.3-3.7,0.3-3.7s-15,13.6-22-8.7
			C316.3,511.8,313.5,534,313.5,534z"/>
		<path class="st3" d="M279.8,533.8c0,0,23.8,3.8,28.5-8.4l10,12.4c0,0,23.5-5.8,25.1-19.3l8.9,15.3c0,0,13.3-1.5,12-8.4
			c0,0,14.8-2.5,12-6.9s9.3,9.7,9.3,9.7s18,1.7,18-16.3L283,503.1C283,503.1,264,525.1,279.8,533.8z"/>
		<path class="st2" d="M348.2,499.8c0,0,12.7,41.4,4,49.1c0,0-9,7.7-6.8-6.1c0,0,5.4,6.1,4.8-3.1l-13.9-23l-4.7-16.9H348.2z"/>
		<path class="st2" d="M351.9,529.3c0,0-22,12.4,4.8,12.4c0,0,26.2,14.2,26.8,0c0.6-14.2,0.3-3.7,0.3-3.7s-12.4,12.6-22-8.7
			C331.6,463.1,351.9,529.3,351.9,529.3z"/>
		<path class="st3" d="M288.2,412.6l13.5,4.2l12.6-0.5c0,0,5.6-5.8-2.6-6.2l-20.6-9.2c0,0-1.2-9.3-10.8-7.3l2.7,6.5l2.7,6.5
			L288.2,412.6z"/>
		<path class="st2" d="M384,503.1c0,0,12.7,36,4,42.7c0,0-9,6.7-6.8-5.3c0,0,5.4,5.3,4.8-2.7l-13.9-20l-4.7-14.7H384z"/>
		<path class="st2" d="M316.3,511.8c0,0,12.7,36,4,42.7c0,0-9,6.7-6.8-5.3c0,0,5.4,5.3,4.8-2.7l-13.9-20l-4.7-14.7H316.3z"/>
		<path class="st4" d="M252.3,259.3c0,0,23-13-2.5-22.5c0,0-17.5-5-27.5,7c0,0-7,6-3.5,30.5l13,52l1,19.5l-11,22.5l-13,14.5v6h21.5
			l-17,19.5l-1,7l18.5,3c0,0-2,15.5-14,15l1.5,7.5c0,0,11.5,6,17,6c5.5,0,19.5,56,19.5,56s13.5,31,25,31c0,0-15.5-18.5,9.5-23.5
			c0,0-47.5-8.5-43-69l14-66c0,0,4-22-3.5-29c0,0-19.8-8.5-25.8-80.5L252.3,259.3z"/>
		<path class="st4" d="M348,498.4c0,0-16.7,46-44.7,11.3c0,0-39.3-34-18-118.7c0,0,9.3-28,9.3-54l3.3-14l4,6.7c0,0,10.3-4,11.5-13.3
			l7.2,10c0,0,10,40-22.7,34c0,0-1.7,11.3,15.5,12c0,0,16.5,11.3-16.2,31.3l-9-3.3v10.7c0,0,33,12,28.3,28.7c0,0,11.3-5.3,19.3-2.7
			c0,0,5.3-12,41.3-5.3c0,0,32.7-8,43.3,18.7c0,0,16,18.7-9.3,59.3c0,0-20,18-29.3-2c0,0-23.3,22-35.3,4L348,498.4z"/>
		<path class="st5" d="M252.3,259.3l-21.3,6.5c6,72,25.8,80.5,25.8,80.5c7.5,7,3.5,29,3.5,29l-14,66c-4.5,60.5,43,69,43,69l13.7,8.2
			l5.3-4.2c0,0-35.8-36.9-27.2-94.7l17.9-96.5c0,0,3.3-36.7-24-36.7C275,286.4,250.3,274.1,252.3,259.3z"/>
		<path class="st4" d="M259.7,290.4l9.3-6.7c0,0,6-2.7,6,3.3s0,6,0,6s-2,6-7.7,6l-11-2.7C256.3,296.4,254.2,294.3,259.7,290.4z"/>
		<path class="st3" d="M313.5,316.4c0,0,14.2-7.3,25.5-4.7l3.3,9.3h7.3v4.7h-10c0,0-16.5,4.2-19,0.7
			C318.1,322.9,313.5,316.4,313.5,316.4z"/>
		<path class="st3" d="M209.8,382.8l-9.8-8.3l-10.7-4c0,0-6.7,3,0,6.2l14,15.2c0,0-2.2,8.3,6.5,10v-6.5v-6.5V382.8z"/>
		<path class="st6" d="M333.2,326.3l-1.9,75.7c0,0-3.2,32.4,4.7,33.1"/>
		<path class="st3" d="M213.3,409.1l-9.8-8.3l-10.7-4c0,0-6.7,3,0,6.2l14,15.2c0,0-2.2,8.3,6.5,10v-6.5v-6.5V409.1z"/>
		<path class="st3" d="M218.1,433.8l-8.8-7.4l-9.5-3.6c0,0-6,2.7,0,5.5l12.5,13.6c0,0-2,7.5,5.8,8.9v-5.8v-5.8V433.8z"/>
		<path class="st2" d="M383.2,524.7c0,0-22,12.4,4.8,12.4c0,0,26.2,14.2,26.8,0c0.6-14.2,0.3-3.7,0.3-3.7s-15,13.6-22-8.7
			C386,502.4,383.2,524.7,383.2,524.7z"/>
		<ellipse class="st7" cx="304.4" cy="279.4" rx="9.1" ry="3.7"/>
		<ellipse class="st7" cx="320.4" cy="262.5" rx="20.7" ry="9.3"/>
		<line class="st6" x1="327.7" y1="288.4" x2="331.6" y2="311.2"/>
		<path class="st6" d="M422.3,453"/>
	</g>
</g>
<g id="Layer_4">
</g>
</svg>
