<?xml version="1.0" encoding="utf-8"?>
<!-- Generator: Adobe Illustrator 18.1.1, SVG Export Plug-In . SVG Version: 6.00 Build 0)  -->
<!DOCTYPE svg PUBLIC "-//W3C//DTD SVG 1.1//EN" "http://www.w3.org/Graphics/SVG/1.1/DTD/svg11.dtd">
<svg version="1.1" xmlns="http://www.w3.org/2000/svg" xmlns:xlink="http://www.w3.org/1999/xlink" x="0px" y="0px"
	 viewBox="0 0 383 222.7" style="enable-background:new 0 0 383 222.7;" xml:space="preserve">
<style type="text/css">
	.st0{fill:#FFFFFF;}
	.st1{fill:none;stroke:#000000;stroke-miterlimit:10;}
	.st2{fill:none;stroke:#231F20;stroke-miterlimit:10;}
</style>
<g id="Layer_1">
	<g>
		<path d="M356.1,59.4c-0.9-3.6-1.7-7.2-2.3-10.8c-0.4-2.2,1.1-3.5,3.3-3.3c1,0.1,2,0.4,3,0.6c-0.2-1.2-0.7-2.4-0.5-3.4
			c0.6-3.5-1-5.8-3.6-7.7c-2.7-1.9-5.7-3.5-8.3-5.6c-4.1-3.3-8.8-3.8-13.7-3.7c-3.9,0.1-6.9,1.8-9.1,4.9c-1.8,2.6-3.9,5.1-5.4,8
			c-0.7,1.4-0.4,3.3-0.3,5c0,0.4,1.5,1,2.2,1c1.4-0.2,2.6-0.8,4-1.2c3.5-1,6.7-0.1,7.7,2.8c1.1,3.1,1.9,6.5,2,9.8
			c0.1,4.7-0.5,9.4-1,14.1c-0.2,1.7-0.7,3.4-1.3,5c-1.2,2.9-2.5,5.7-3.8,8.5c-0.9,2-1.7,4-2.8,5.9c-1.4,2.3-2.9,4.4-4.5,6.6
			c-2.8,3.7-4.7,8-8.5,10.9c-3.4,2.7-6.9,5.2-10.1,8.3c-3.6,3.5-8.1,6-12.3,8.9c-1.6,1.1-3.5,1.9-5.1,3c-1.1,0.8-2.1,1.3-3.3,1.8
			c-3.1,1.8-6.4,2.8-9.8,3.4c-0.7,0.8-0.9,1.3-1.3,1.4c-2.2,0.6-4.1,1.6-5.5,3.4c-0.3,0.4-1,0.7-1.5,0.8c-5,1.4-10,2.6-14.9,4.1
			c-3.3,1-6.5,1.8-9.9,2.3c-1.6,0.2-3.1,0.2-4.4-0.1c-7.2,2-14.3,4.1-21.8,4.8c-0.7,0.1-1.4,0.1-2,0.2c-1.3,0.3-2.7,0.6-4,0.6
			c-2.6,0.1-5,0-7.4,0.9c-0.5,0.2-1.2,0.3-1.7,0.1c-3.4-1.2-6.8-0.7-10.3-0.2c-1.4,0.2-2.5,0-3.5-0.5c-3.6,0.4-7.5,0.5-11-0.5
			c-1.1,0.5-2.4,0.2-3.8,0c-6.6-1.3-13.2-2.4-19.7-3.9c-4.4-1-8.6-2.6-12.9-3.9c-0.2-0.1-0.4-0.3-0.6-0.4c-2.2-0.9-4.5-1.8-6.7-2.6
			c-3.8-1.4-7.7-2.6-11.3-4.4c-3.7-1.9-7.1-4.3-10.6-6.6c-3.4-2.3-7.2-4.1-9.7-7.7c-0.8-1.1-2-1.9-3.1-2.8c-3.3-2.8-6.6-5.5-8.5-9.5
			c-1.3-2.7-2.8-5.3-4.2-7.9c-0.3-0.6-0.9-1.1-1.3-1.6c-1-1.3-2.1-2.7-3.1-4c-1-1.4-1.9-2.9-3-4.3c-2.4-2.9-1.9-5.5,1.6-6.6
			c4.2-1.2,8.5-2.2,13-1.8c1.6,0.1,3.2-0.3,4.7-0.7c1-0.3,1.6-1.2,1-2.2c-1.3-2.1-2.5-4.4-5.6-4.5c-1.9-0.1-3.8-0.8-5.6-1.5
			c-5.7-2.1-11.3-3.4-16.9,0.4c-0.8,0.6-1.9,0.9-2.9,1c-8,0.8-12.7,6.3-16.6,12.3c-1.8,2.8-2.8,6.2-4.4,9.7c2.1-1.1,3.9-2.3,5.9-3.1
			c0.9-0.4,2.3-0.2,3.2,0.2c1.3,0.7,0.6,2,0.1,3.1c-1.7,3.8-2.1,7.8-2.3,11.8c-0.1,2.8,0.2,5.9,1.2,8.5c0.9,2.5,1.4,4.8,1.4,7.4
			c0,1.5,0.3,3,0.7,4.4c1,3.4,2.2,6.8,3.4,10.1c0.6,1.8,1.2,3.7,2.1,5.5c2,3.8,4.2,7.4,6.2,11.2c3.6,6.8,9,12,14.5,17
			c4.4,4,9.5,7.3,13.8,11.5c3.5,3.5,7.8,6.1,12.8,7.4c2.8,0.7,5.6,1.6,8.2,2.8c3.7,1.7,7.5,2.5,11.4,2.8c10.9,0.9,21.7,3.1,32.8,2.4
			c5.7-0.4,11.5,0.3,17.3,0.5c3.5,0.1,6.9,0.6,10.4,0.5c5.9-0.2,11.7-0.9,17.6-1.3c3.9-0.3,7.8-0.3,11.7-0.7
			c2.4-0.2,4.8-0.9,7.2-1.4c6.5-1.4,12.8-2.7,19.6-1.6c3.2,0.5,6.8,0.2,9.9-0.7c8.9-2.6,17.4-6.1,25.8-10.2
			c3.9-1.9,7.6-4.4,11.6-6.2c9.1-4.3,17.9-9.1,26.3-14.6c9.1-6,17.8-12.4,25.1-20.6c4-4.5,7.2-9.3,8.7-15.1c0.3-1.2,0.7-2.5,1.3-3.6
			c2.4-4.2,3.8-8.7,4.8-13.4c1-4.9,2.1-9.7,2.8-14.7c0.5-3.2,0.7-6.4,0.7-9.7c0-3.3-0.5-6.7-0.5-10
			C359.1,70.8,357.5,65.1,356.1,59.4z M351.3,71.5c-0.3,0.1-0.6,0.2-0.9,0.3c-1-1.9-2-3.8-3-5.8c-2.1-4.1-4.2-8.2-6.2-12.4
			c-0.5-1.1-0.6-2.5-1-4.3c3.3,0.9,5,3,6.2,5C349.3,59.8,350.6,65.6,351.3,71.5z M331.9,33c4.2-3.3,10.1-2.3,13.6,2
			C341.1,34.4,336.7,33.7,331.9,33z M64.8,95.5c2.7,3.6,2.1,10.4-1.2,13.5c-1.4-0.3-1.3-1.3-1.4-2.4C62,100.6,62.6,97.7,64.8,95.5z
			 M133.3,186.2c-0.2,2.3-0.9,2.8-3.2,2.4c-1.6-0.3-3.2-0.6-4.7-1.2c-5.7-2-11.3-4-16.9-6.3c-4-1.7-4.2-2.5-3.5-6.7
			c0.1-0.9,0.2-1.8-0.4-2.8c-0.6,1.9-1.1,3.8-1.8,6.1c-1.6-0.7-3-1.2-4.2-1.9c-7.9-4.9-14.8-11-20.7-18.3
			c-6.3-7.7-10.6-16.2-13.8-25.5c-1.6-4.9-2.1-9.7-0.1-14.5c1.1-2.8,2.2-5.6,3.4-8.4c0.4-0.9,1.1-1.7,2-3c0.8,1.5,1.4,2.4,1.9,3.4
			c2.9,6.6,7.2,12.3,12.2,17.2c4.4,4.3,9.9,7.6,15,11.2c2.1,1.5,4.3,2.7,6.6,3.9c2.1,1.1,2.7,2.6,2.4,4.9
			c-0.7,5.2-1.2,10.3-1.8,15.5c-0.1,0.9,0,1.7,0,2.6c0.3,0,0.6,0,0.9,0c0.9-6.6,1.7-13.2,2.6-20.1c1.5,0.4,2.5,0.7,3.4,1
			c6.5,2.5,13,5,19.4,7.5c3.3,1.3,3.5,1.9,3.2,5.5c-0.5,6-0.8,12-1.2,18C133.8,179.8,133.6,183,133.3,186.2z M349.4,111.2
			c-2.6,8.5-6.1,16.5-11.2,23.7c-1.4,1.9-3.2,3.5-4.9,5.3c-0.2,0.2-0.5,0.5-0.6,0.8c-4.3,7.8-11.3,13-18.1,18.4
			c-1,0.8-2.4,1-3.2,1.3c-1.5,1.5-2.6,3-4,4c-7.4,5.2-15.4,9.3-23.7,13c-8.8,3.9-17.7,7.4-27.1,9.7c-11.8,2.9-23.6,5.2-35.8,5.8
			c-14.8,0.8-29.6,1.8-44.4,1.1c-12-0.5-24-1-35.8-3.4c-6-1.2-6.4-1.7-6-7.8c0.5-6.9,0.9-13.8,1.4-20.8c0.2-2.4,0.6-4.8,1-7.5
			c1.5,0.2,2.6,0.3,3.7,0.5c8.2,1.8,16.5,3.6,24.7,5.4c3.8,0.8,4.1,1,4.1,5c0,2.5,0,5.1,0,7.6c0,1.1,0.2,2.2,0.3,3.3
			c0.2,0,0.5,0,0.7,0c0.1-1,0.2-2.1,0.2-3.1c0-2.4,0-4.9,0-7.3c0.1-3.9,0.6-4.5,4.5-4.3c5.5,0.3,11.1,0.7,16.6,1
			c5.2,0.3,10.5,0.9,15.6,0.4c8.8-0.9,17.6-2.5,26.4-3.9c3.9-0.6,7.8-1.3,11.5-2.6c6.5-2.2,12.8-4.8,19.1-7.4c4.9-2,9.9-4,14.5-6.6
			c6-3.4,11.7-7.4,17.5-11.2c1.8-1.2,3.4-2.9,5.4-3.8c4.5-2,7.1-6,10.4-9.2c3.3-3.2,6.5-6.6,9.7-9.9c5.7-5.9,9.5-13.1,13.1-20.3
			c3.9-7.6,4.9-15.8,5.3-24.2c0.1-1.3,0-2.7,0-4.1c0.3-0.1,0.5-0.2,0.8-0.3c0.6,0.9,1.4,1.7,1.9,2.6c3,5.5,6,11,8.9,16.5
			c0.6,1.1,0.8,2.4,0.9,3.7C353.3,92.6,352.2,101.9,349.4,111.2z"/>
		<path class="st0" d="M311.4,160.7c-1.5,1.5-2.6,3-4,4c-7.4,5.2-15.4,9.3-23.7,13c-8.8,3.9-17.7,7.4-27.1,9.7
			c-11.8,2.9-23.6,5.2-35.8,5.8c-14.8,0.8-29.6,1.8-44.4,1.1c-12-0.5-24-1-35.8-3.4c-6-1.2-6.4-1.7-6-7.8c0.5-6.9,0.9-13.8,1.4-20.8
			c0.2-2.4,0.6-4.8,1-7.5c1.5,0.2,2.6,0.3,3.7,0.5c8.2,1.8,16.5,3.6,24.7,5.4c3.8,0.8,4.1,1,4.1,5c0,2.5,0,5.1,0,7.6
			c0,1.1,0.2,2.2,0.3,3.3c0.2,0,0.5,0,0.7,0c0.1-1,0.2-2.1,0.2-3.1c0-2.4,0-4.9,0-7.3c0.1-3.9,0.6-4.5,4.5-4.3
			c5.5,0.3,11.1,0.7,16.6,1c5.2,0.3,10.5,0.9,15.6,0.4c8.8-0.9,17.6-2.5,26.4-3.9c3.9-0.6,7.8-1.3,11.5-2.6
			c6.5-2.2,12.8-4.8,19.1-7.4c4.9-2,9.9-4,14.5-6.6c6-3.4,11.7-7.4,17.5-11.2c1.8-1.2,3.4-2.9,5.4-3.8c4.5-2,7.1-6,10.4-9.2
			c3.3-3.2,6.5-6.6,9.7-9.9c5.7-5.9,9.5-13.1,13.1-20.3c3.9-7.6,4.9-15.8,5.3-24.2c0.1-1.3,0-2.7,0-4.1c0.3-0.1,0.5-0.2,0.8-0.3
			c0.6,0.9,1.4,1.7,1.9,2.6c3,5.5,6,11,8.9,16.5c0.6,1.1,0.8,2.4,0.9,3.7c0.5,9.6-0.5,18.9-3.3,28.1c-2.6,8.5-6.1,16.5-11.2,23.7
			c-1.4,1.9-3.2,3.5-4.9,5.3c-0.2,0.2-0.5,0.5-0.6,0.8c-4.3,7.8-11.3,13-18.1,18.4C313.6,160.1,312.2,160.4,311.4,160.7z
			 M307.8,140.4c0.3,0,0.6,0,0.8-0.1c-0.5-3.9-1-7.8-1.5-11.7c-0.3,0-0.7,0.1-1,0.1C306.7,132.7,307.3,136.6,307.8,140.4z
			 M330.4,127c-0.2,0.1-0.4,0.2-0.6,0.3c0.2,1,0.5,2.1,0.7,3.1c0.2-0.1,0.4-0.1,0.6-0.2C330.9,129.1,330.7,128,330.4,127z
			 M208,173.4c-0.1,0-0.1,0-0.2,0c0,0.5,0,1,0,1.4c0.1,0,0.1,0,0.2,0C208,174.4,208,173.9,208,173.4z"/>
		<path class="st0" d="M106.5,164.7c0.9-6.6,1.7-13.2,2.6-20.1c1.5,0.4,2.5,0.7,3.4,1c6.5,2.5,13,5,19.4,7.5
			c3.3,1.3,3.5,1.9,3.2,5.5c-0.5,6-0.8,12-1.2,18c-0.2,3.2-0.4,6.5-0.7,9.7c-0.2,2.3-0.9,2.8-3.2,2.4c-1.6-0.3-3.2-0.6-4.7-1.2
			c-5.7-2-11.3-4-16.9-6.3c-4-1.7-4.2-2.5-3.5-6.7c0.1-0.9,0.2-1.8-0.4-2.8c-0.6,1.9-1.1,3.8-1.8,6.1c-1.6-0.7-3-1.2-4.2-1.9
			c-7.9-4.9-14.8-11-20.7-18.3c-6.3-7.7-10.6-16.2-13.8-25.5c-1.6-4.9-2.1-9.7-0.1-14.5c1.1-2.8,2.2-5.6,3.4-8.4
			c0.4-0.9,1.1-1.7,2-3c0.8,1.5,1.4,2.4,1.9,3.4c2.9,6.6,7.2,12.3,12.2,17.2c4.4,4.3,9.9,7.6,15,11.2c2.1,1.5,4.3,2.7,6.6,3.9
			c2.1,1.1,2.7,2.6,2.4,4.9c-0.7,5.2-1.2,10.3-1.8,15.5c-0.1,0.9,0,1.7,0,2.6C106,164.7,106.3,164.7,106.5,164.7z"/>
		<path class="st0" d="M350.4,71.8c-1-1.9-2-3.8-3-5.8c-2.1-4.1-4.2-8.2-6.2-12.4c-0.5-1.1-0.6-2.5-1-4.3c3.3,0.9,5,3,6.2,5
			c2.9,5.3,4.2,11.1,4.9,17C351,71.6,350.7,71.7,350.4,71.8z"/>
		<path class="st0" d="M64.8,95.5c2.7,3.6,2.1,10.4-1.2,13.5c-1.4-0.3-1.3-1.3-1.4-2.4C62,100.6,62.6,97.7,64.8,95.5z"/>
		<path class="st0" d="M331.9,33c4.2-3.3,10.1-2.3,13.6,2C341.1,34.4,336.7,33.7,331.9,33z"/>
		<path d="M307.8,140.4c-0.5-3.9-1.1-7.8-1.6-11.6c0.3,0,0.7-0.1,1-0.1c0.5,3.9,1,7.8,1.5,11.7C308.4,140.4,308.1,140.4,307.8,140.4
			z"/>
		<path d="M330.4,127c0.2,1.1,0.5,2.1,0.7,3.2c-0.2,0.1-0.4,0.1-0.6,0.2c-0.2-1-0.5-2.1-0.7-3.1C330,127.1,330.2,127,330.4,127z"/>
		<path d="M208,173.4c0,0.5,0,1,0,1.4c-0.1,0-0.1,0-0.2,0c0-0.5,0-1,0-1.4C207.9,173.4,208,173.4,208,173.4z"/>
		<line class="st1" x1="85.7" y1="123.2" x2="68.7" y2="147.4"/>
		<line class="st1" x1="223.3" y1="158.2" x2="229.7" y2="194.6"/>
		<line class="st2" x1="331.2" y1="89.2" x2="351.3" y2="112.9"/>
		<line class="st1" x1="306.7" y1="129.3" x2="305.7" y2="122.7"/>
	</g>
</g>
<g id="Layer_2">
</g>
</svg>
