<?xml version="1.0" encoding="utf-8"?>
<!-- Generator: Adobe Illustrator 18.1.1, SVG Export Plug-In . SVG Version: 6.00 Build 0)  -->
<!DOCTYPE svg PUBLIC "-//W3C//DTD SVG 1.1//EN" "http://www.w3.org/Graphics/SVG/1.1/DTD/svg11.dtd">
<svg version="1.1" xmlns="http://www.w3.org/2000/svg" xmlns:xlink="http://www.w3.org/1999/xlink" x="0px" y="0px"
	 viewBox="0 90 612 612" style="enable-background:new 0 90 612 612;" xml:space="preserve">
<style type="text/css">
	.st0{fill:#231F20;}
	.st1{display:none;}
	.st2{fill:#873B01;}
	.st3{fill:#B37408;}
	.st4{fill:#D79608;}
	.st5{fill:#DB980A;}
</style>
<g id="Layer_2_1_">
	<g id="Layer_3">
		<rect y="90" class="st0" width="612" height="612"/>
	</g>
</g>
<g id="Layer_3_1_" class="st1">
	
		<image style="display:inline;overflow:visible;" width="1424" height="1080" xlink:href="../../../../../../Desktop/Alice-disneyscreencaps.com-919.jpg"  transform="matrix(0.5239 0 0 0.5239 -248 31)">
	</image>
</g>
<g id="Layer_4">
</g>
<g id="Layer_6">
	<g>
		<path class="st2" d="M266.2,293.5c0,0,7.2-6.8-3.2-9.2s-8.2,16.5-2.5,14.2c0,0,35,3.5,38,12.5c0,0,4.2-10.2,42.5-5
			c0,0,11.8-8.8,1.8-16.2c0,0-10.5-1.2-5.2,7.8l1.5,1.7c0,0,1.5,5.2-17-8.5c0,0-11.3-6.8-23.2,3c0,0-6.5-11.8-17.2-7
			C281.4,286.7,277.7,287.7,266.2,293.5z"/>
		<path class="st3" d="M266.4,302.3l70.7,6l5.3,52.7c0,0,10,60,5.3,106.7l-2,28.7h-15.3c0,0-33.3,32.7-54.7-11.3l-16.7-2.7
			C259.1,482.3,273.1,316.3,266.4,302.3z"/>
		<path class="st4" d="M268.4,415c0,0,3,35,7.5,42c0,0,11,14,13.5,19c0,0,8.5,10.5,23.5,0c0,0,24.5-37.5,19.5-70.5
			c0,0-4-30.2-16.5-30.6L268.4,415z"/>
		<path class="st2" d="M345.7,496.3l10.7-5.3c0,0-3.5-151.5-14-181.5s0,0,0,0l-5.3-1.2L345.7,496.3"/>
		<path class="st5" d="M267.6,297c0,0,7.2-6.8-3.2-9.2c-10.5-2.5-8.2,16.5-2.5,14.2c0,0,35,3.5,38,12.5c0,0,4.2-10.2,42.5-5
			c0,0,11.8-8.8,1.8-16.2c0,0-10.5-1.2-5.2,7.8l1.5,1.7c0,0,1.5,5.2-17-8.5c0,0-11.3-6.8-23.2,3c0,0-6.5-11.8-17.2-7
			C282.9,290.2,279.1,291.2,267.6,297z"/>
		<circle class="st2" cx="294.1" cy="392" r="33.3"/>
		<circle class="st4" cx="292.1" cy="387" r="33.3"/>
		<g>
			<ellipse class="st0" cx="297.1" cy="438.3" rx="9.8" ry="10.5"/>
			<rect x="292.9" y="444.1" class="st0" width="9.7" height="17"/>
		</g>
	</g>
</g>
</svg>
