<?xml version="1.0" encoding="utf-8"?>
<!-- Generator: Adobe Illustrator 18.1.1, SVG Export Plug-In . SVG Version: 6.00 Build 0)  -->
<!DOCTYPE svg PUBLIC "-//W3C//DTD SVG 1.1//EN" "http://www.w3.org/Graphics/SVG/1.1/DTD/svg11.dtd">
<svg version="1.1" id="Layer_2" xmlns="http://www.w3.org/2000/svg" xmlns:xlink="http://www.w3.org/1999/xlink" x="0px" y="0px"
	 viewBox="0 0 218.8 481.5" style="enable-background:new 0 0 218.8 481.5;" xml:space="preserve">
<style type="text/css">
	.st0{fill:#FFFFFF;}
	.st1{fill:#EA2B1F;}
	.st2{fill:#FD85A9;}
	.st3{fill:#EA2B1F;stroke:#231F20;stroke-width:0.5;stroke-miterlimit:10;}
</style>
<path class="st0" d="M54.9,261l108.9,2.5c0,0,13.5-4.3,4.3,35.6l-1.4,49.5c0,0,6.4,38.8,18.5,82.9c0,0,3.6,11.7-13.5,13.9L96.6,455
	c0,0-35.2,8.2-40.2-25.6l-3.2-81.5C53.1,347.8,38.2,261,54.9,261z"/>
<path class="st1" d="M108.7,205.5c0,0-40.2,50.2-16.4,63.3c0,0,14.6,6,21-5.3c0,0,10.2,11.5,23.7,4.9
	C137,268.5,157.8,253.9,108.7,205.5z"/>
<path class="st1" d="M60.4,442.6l-0.2,7.8c0,0-15.8-27.4-34.7-22.1c0,0-5.6,28.3,23.3,39.3c0,0,18.4,4.7,26.6,4.2
	c0,0,8.1,3,6.8-17.6c0,0-6.8,0.3-12.4-4s-10.1-10-10.1-10"/>
<path class="st1" d="M33.7,290.1l11.9,123.7l6.4-0.3L39.6,289.8c0,0,6.4,3.6,7.3-0.4c0,0-11.4-47.1-12.5-74.9S25,52.5,25,52.5
	s11.7,6.5,15.8-4.1c0,0,7-16.4-17.1-46.5c0,0-6.4-6.4-10.5,3.8c0,0-32.4,53.4,4.3,46.8l10.3,166.6l0,40.6
	C27.8,259.8,16.4,304.5,33.7,290.1z"/>
<path class="st1" d="M47.7,297.6c0,0-9.5-5.2-17.8-0.8l1.1,20.3c0,0,0.6,12.8,17.9,3L47.7,297.6z"/>
<path class="st1" d="M163.2,446.7c0,0-5.3,29.4,20.3,32.7l26.7,2.2c0,0,19.3-5.6,0-17.4c0,0-24.7-2.6-32.2-20.3L163.2,446.7z"/>
<path class="st1" d="M112.2,340.7c0,0-15.6-11.5-13.3,7.5c0,0,4.2,14.7,16.2,25.6l12.1-22.3C127.2,351.5,134.5,329.8,112.2,340.7z"
	/>
<path class="st1" d="M66.7,281.5c0,0-8.2-6.1-7.1,4c0,0,2.2,7.8,8.6,13.6l6.4-11.8C74.6,287.2,78.5,275.7,66.7,281.5z"/>
<path class="st1" d="M165.8,424.3c0,0,9.7,3.3,5.5-5.9c0,0-4.5-6.7-12.3-10.3l-2.5,13.2C156.5,421.3,156.3,433.4,165.8,424.3z"/>
<path class="st2" d="M113.3,263.4c0,0,23.8-28.7,9.7-36.2c0,0-8.6-3.5-12.4,3c0,0-6.1-6.6-14.1-2.8
	C96.5,227.4,84.2,235.8,113.3,263.4z"/>
<path class="st3" d="M110,230.3c0,0-8.2-4-7.1,2.6c0,0,2.2,5.1,8.6,8.9l6.4-7.8C117.9,234.1,121.8,226.5,110,230.3z"/>
</svg>
