<?xml version="1.0" encoding="utf-8"?>
<!-- Generator: Adobe Illustrator 18.1.1, SVG Export Plug-In . SVG Version: 6.00 Build 0)  -->
<!DOCTYPE svg PUBLIC "-//W3C//DTD SVG 1.1//EN" "http://www.w3.org/Graphics/SVG/1.1/DTD/svg11.dtd">
<svg version="1.1" xmlns="http://www.w3.org/2000/svg" xmlns:xlink="http://www.w3.org/1999/xlink" x="0px" y="0px"
	 viewBox="0 0 59 72.5" style="enable-background:new 0 0 59 72.5;" xml:space="preserve">
<g id="Layer_2">
</g>
<g id="Layer_1">
	<g>
		<path d="M27.4,11.8c-1.1-4.3-5.1-7.5-9.8-7.5c-5.6,0-10.1,4.5-10.1,10.1s4.5,10.1,10.1,10.1c5.1,0,9.3-3.8,10-8.7h12.1v6.6h3.4
			v-4.3h4v4.3h3.4V11.8H27.4z M17.7,19.5c-2.8,0-5.1-2.3-5.1-5.1s2.3-5.1,5.1-5.1s5.1,2.3,5.1,5.1S20.5,19.5,17.7,19.5z"/>
	</g>
	<path d="M27.4,34c-1.1-4.3-5.1-7.5-9.8-7.5c-5.6,0-10.1,4.5-10.1,10.1s4.5,10.1,10.1,10.1c5.1,0,9.3-3.8,10-8.7h12.1v6.6h3.4v-4.3
		h4v4.3h3.4V34H27.4z M17.7,41.6c-2.8,0-5.1-2.3-5.1-5.1c0-2.8,2.3-5.1,5.1-5.1s5.1,2.3,5.1,5.1C22.7,39.3,20.5,41.6,17.7,41.6z"/>
	<g>
		<path d="M27.4,56.1c-1.1-4.3-5.1-7.5-9.8-7.5c-5.6,0-10.1,4.5-10.1,10.1s4.5,10.1,10.1,10.1c5.1,0,9.3-3.8,10-8.7h12.1v6.6h3.4
			v-4.3h4v4.3h3.4V56.1H27.4z M17.7,63.7c-2.8,0-5.1-2.3-5.1-5.1s2.3-5.1,5.1-5.1s5.1,2.3,5.1,5.1S20.5,63.7,17.7,63.7z"/>
	</g>
	<g>
	</g>
	<g>
	</g>
	<g>
	</g>
	<g>
	</g>
	<g>
	</g>
	<g>
	</g>
</g>
</svg>
