<?xml version="1.0" encoding="utf-8"?>
<!-- Generator: Adobe Illustrator 18.1.1, SVG Export Plug-In . SVG Version: 6.00 Build 0)  -->
<!DOCTYPE svg PUBLIC "-//W3C//DTD SVG 1.1//EN" "http://www.w3.org/Graphics/SVG/1.1/DTD/svg11.dtd">
<svg version="1.1" id="Layer_1" xmlns="http://www.w3.org/2000/svg" xmlns:xlink="http://www.w3.org/1999/xlink" x="0px" y="0px"
	 viewBox="0 0 59 72.5" style="enable-background:new 0 0 59 72.5;" xml:space="preserve">
<style type="text/css">
	.st0{fill:#FFFFFF;stroke:#000000;stroke-width:2;stroke-miterlimit:10;}
	.st1{fill:#FFFFFF;}
	.st2{fill:none;stroke:#000000;stroke-width:4;stroke-miterlimit:10;}
	.st3{fill:none;stroke:#FFFFFF;stroke-width:4;stroke-miterlimit:10;}
</style>
<path class="st0" d="M46,71.5H13c-6.6,0-12-5.4-12-12V13C1,6.4,6.4,1,13,1h33c6.6,0,12,5.4,12,12v46.5C58,66.1,52.6,71.5,46,71.5z"
	/>
<g>
	<g>
		<path class="st1" d="M18.2,22c-4.2,0-7.6-3.4-7.6-7.6s3.4-7.6,7.6-7.6c4.2,0,7.6,3.4,7.6,7.6S22.3,22,18.2,22z"/>
		<path d="M18.2,9.3c2.8,0,5.1,2.3,5.1,5.1c0,2.8-2.3,5.1-5.1,5.1c-2.8,0-5.1-2.3-5.1-5.1C13.1,11.6,15.4,9.3,18.2,9.3 M18.2,4.3
			c-5.6,0-10.1,4.5-10.1,10.1s4.5,10.1,10.1,10.1c5.6,0,10.1-4.5,10.1-10.1S23.7,4.3,18.2,4.3L18.2,4.3z"/>
	</g>
	<g>
		<line class="st2" x1="23.2" y1="13.8" x2="50.9" y2="13.8"/>
		<rect x="40.2" y="13.8" width="10.7" height="8.6"/>
	</g>
	<line class="st3" x1="45.6" y1="22.7" x2="45.6" y2="18.2"/>
</g>
<g>
	<g>
		<path class="st1" d="M18.2,43.3c-4.2,0-7.6-3.4-7.6-7.6s3.4-7.6,7.6-7.6c4.2,0,7.6,3.4,7.6,7.6S22.3,43.3,18.2,43.3z"/>
		<path d="M18.2,30.7c2.8,0,5.1,2.3,5.1,5.1s-2.3,5.1-5.1,5.1c-2.8,0-5.1-2.3-5.1-5.1S15.4,30.7,18.2,30.7 M18.2,25.7
			c-5.6,0-10.1,4.5-10.1,10.1s4.5,10.1,10.1,10.1c5.6,0,10.1-4.5,10.1-10.1S23.7,25.7,18.2,25.7L18.2,25.7z"/>
	</g>
	<g>
		<line class="st2" x1="23.2" y1="35.2" x2="50.9" y2="35.2"/>
		<rect x="40.2" y="35.2" width="10.7" height="8.6"/>
	</g>
	<line class="st3" x1="45.6" y1="44.1" x2="45.6" y2="39.5"/>
</g>
<g>
	<g>
		<path class="st1" d="M18.2,64.7c-4.2,0-7.6-3.4-7.6-7.6c0-4.2,3.4-7.6,7.6-7.6c4.2,0,7.6,3.4,7.6,7.6
			C25.7,61.3,22.3,64.7,18.2,64.7z"/>
		<path d="M18.2,52c2.8,0,5.1,2.3,5.1,5.1s-2.3,5.1-5.1,5.1c-2.8,0-5.1-2.3-5.1-5.1S15.4,52,18.2,52 M18.2,47
			c-5.6,0-10.1,4.5-10.1,10.1s4.5,10.1,10.1,10.1c5.6,0,10.1-4.5,10.1-10.1S23.7,47,18.2,47L18.2,47z"/>
	</g>
	<g>
		<line class="st2" x1="23.2" y1="56.5" x2="50.9" y2="56.5"/>
		<rect x="40.2" y="56.5" width="10.7" height="8.6"/>
	</g>
	<line class="st3" x1="45.6" y1="65.4" x2="45.6" y2="60.8"/>
</g>
<g>
</g>
<g>
</g>
<g>
</g>
<g>
</g>
<g>
</g>
<g>
</g>
</svg>
