<?xml version="1.0" encoding="utf-8"?>
<!-- Generator: Adobe Illustrator 18.1.1, SVG Export Plug-In . SVG Version: 6.00 Build 0)  -->
<!DOCTYPE svg PUBLIC "-//W3C//DTD SVG 1.1//EN" "http://www.w3.org/Graphics/SVG/1.1/DTD/svg11.dtd">
<svg version="1.1" xmlns="http://www.w3.org/2000/svg" xmlns:xlink="http://www.w3.org/1999/xlink" x="0px" y="0px"
	 viewBox="0 90 612 612" style="enable-background:new 0 90 612 612;" xml:space="preserve">
<style type="text/css">
	.st0{fill:#231F20;}
	.st1{display:none;}
	.st2{fill:#FFFFFF;}
	.st3{fill:#EDA748;}
	.st4{fill:#3958A7;}
	.st5{fill:#81241B;}
	.st6{fill:none;stroke:#231F20;stroke-miterlimit:10;}
	.st7{fill:#F38399;}
</style>
<g id="Layer_2_1_">
	<g id="Layer_3">
		<rect y="90" class="st0" width="612" height="612"/>
	</g>
</g>
<g id="Layer_1" class="st1">
	
		<image style="display:inline;overflow:visible;" width="180" height="240" xlink:href="images.jpg"  transform="matrix(2.0125 0 0 2.0125 109 145)">
	</image>
</g>
<g id="Layer_3_1_">
	<path class="st2" d="M355,483.9V527c0,0,12.5,14.9,6.3,25.7l-6.3,4.1c0,0-1.6,5.6-11,4.6c0,0-7.8,5.9-13.6,0.1
		c0,0-9.6,1.8-12.7-2.8l-3.7-7.7v-22.6l1-40.6L355,483.9z"/>
	<path class="st2" d="M269.5,486v42c0,0-12,14.5-6,25l6,4c0,0,1.5,5.5,10.5,4.5c0,0,7.5,5.7,13,0.1c0,0,10,1.9,13-2.6l3.5-7.5v-22
		l-1-39.5L269.5,486z"/>
	<path class="st3" d="M249.2,319c0,0,9.8,24.5,27.3,36.5l-10,43H350l-17.5-39.8c0,0,24-22.8,25-43.2c0,0-2-8.5-24.5,23h-54
		C279,338.5,251.5,314.5,249.2,319z"/>
	<path class="st2" d="M413.1,405.3c0,0,22.8,17.3,10.5,31c0,0-7.7,3-14,0s-5-4.3-5-4.3s2.8,5.3-0.1,5.7
		c-2.9,0.3-11.4-10.8-11.4-10.8S383.6,402,413.1,405.3z"/>
	<path class="st4" d="M251.9,445.3c0,0,3.1,14.7,17.6,23.7v17c0,0,10.5,9.5,39,4c0,0,4.5-4.6,6.5,1.7c0,0,27.5,5.8,40-7.7v-14.9
		c0,0,17-10.1,18-28.1l-23-42.5h-76L251.9,445.3z"/>
	<path class="st5" d="M329.8,340.5l23.6-2c0,0,19.9,4.6,29,31.3c0,0,26,34.2,31.4,35.4c0,0-25.2,1.6-19.1,24.3
		c0,0-19.1-20-20.3-24.7l-12.7-16.9l16.5,62.4c0,0-29.4-7.1-42.9-43.9c0,0-20.7-51.1-18.2-59.5L329.8,340.5z"/>
	<path class="st2" d="M205.5,410c0,0-22.8,17.3-10.5,31c0,0,7.7,3,14,0s5-4.3,5-4.3s-2.8,5.3,0.1,5.7c2.9,0.3,11.4-10.8,11.4-10.8
		S235,406.7,205.5,410z"/>
	<path class="st2" d="M253,317.5c0,0,20.5,31.5,53,31.5c0,0,34.5-3.5,47.5-36l4-15.5h-5l2.5-7.5h-4l-0.5-7.5l-10-3c0,0-2.5-25-15-34
		c0,0,18-20,7.5-58c0,0-21.5,38-21,49.5l-1.5,3.5H306c0,0-0.3-6.4,3-6.5c0,0-8.5,1-10,7.5c0,0-9.5-38.5-28-54c0,0-14,17.5,4.5,69.5
		c0,0-6.5,11-7,23l-12.5,1.5l1,7h-4v9l-4.5-2L253,317.5z"/>
	<path class="st5" d="M280,342.1h-22.5c0,0-18.5,5.9-25,31.9c0,0-22,34.5-27,36c0,0,24-0.5,20,21.5c0,0,16.5-20.5,17.3-25l10.7-17
		L242.8,450c0,0,27.3-9,37.3-45c0,0,15.7-50.1,12.6-57.8L280,342.1z"/>
	<circle class="st6" cx="290.4" cy="301.7" r="9.3"/>
	<circle class="st6" cx="316.3" cy="301.7" r="9.3"/>
	<ellipse class="st7" cx="303.4" cy="307.7" rx="5.8" ry="3.3"/>
	<path class="st6" d="M299.4,303.4c0,0,4-4,8,0"/>
</g>
</svg>
